<svg width="122" height="33" viewBox="0 0 122 33" fill="none" xmlns="http://www.w3.org/2000/svg">
<path d="M12.64 32.308C10.4987 32.308 8.56267 31.9413 6.832 31.208C5.13067 30.4747 3.78133 29.4187 2.784 28.04C1.78667 26.6613 1.27333 25.0333 1.244 23.156H7.844C7.932 24.4173 8.372 25.4147 9.164 26.148C9.98533 26.8813 11.1 27.248 12.508 27.248C13.9453 27.248 15.0747 26.9107 15.896 26.236C16.7173 25.532 17.128 24.6227 17.128 23.508C17.128 22.5987 16.8493 21.8507 16.292 21.264C15.7347 20.6773 15.0307 20.2227 14.18 19.9C13.3587 19.548 12.2147 19.1667 10.748 18.756C8.75333 18.1693 7.12533 17.5973 5.864 17.04C4.632 16.4533 3.56133 15.588 2.652 14.444C1.772 13.2707 1.332 11.716 1.332 9.78C1.332 7.96133 1.78667 6.37733 2.696 5.028C3.60533 3.67867 4.88133 2.652 6.524 1.948C8.16667 1.21467 10.044 0.848 12.156 0.848C15.324 0.848 17.8907 1.62533 19.856 3.18C21.8507 4.70533 22.9507 6.84667 23.156 9.604H16.38C16.3213 8.548 15.8667 7.68267 15.016 7.008C14.1947 6.304 13.0947 5.952 11.716 5.952C10.5133 5.952 9.54533 6.26 8.812 6.876C8.108 7.492 7.756 8.38667 7.756 9.56C7.756 10.3813 8.02 11.0707 8.548 11.628C9.10533 12.156 9.78 12.596 10.572 12.948C11.3933 13.2707 12.5373 13.652 14.004 14.092C15.9987 14.6787 17.6267 15.2653 18.888 15.852C20.1493 16.4387 21.2347 17.3187 22.144 18.492C23.0533 19.6653 23.508 21.2053 23.508 23.112C23.508 24.7547 23.0827 26.28 22.232 27.688C21.3813 29.096 20.1347 30.2253 18.492 31.076C16.8493 31.8973 14.8987 32.308 12.64 32.308ZM46.2725 16.248C48.0032 16.5707 49.4258 17.436 50.5405 18.844C51.6552 20.252 52.2125 21.8653 52.2125 23.684C52.2125 25.3267 51.8018 26.7787 50.9805 28.04C50.1885 29.272 49.0298 30.24 47.5045 30.944C45.9792 31.648 44.1752 32 42.0925 32H28.8485V1.288H41.5205C43.6032 1.288 45.3925 1.62533 46.8885 2.3C48.4138 2.97467 49.5578 3.91333 50.3205 5.116C51.1125 6.31867 51.5085 7.68267 51.5085 9.208C51.5085 10.9973 51.0245 12.4933 50.0565 13.696C49.1178 14.8987 47.8565 15.7493 46.2725 16.248ZM35.0085 13.96H40.6405C42.1072 13.96 43.2365 13.6373 44.0285 12.992C44.8205 12.3173 45.2165 11.364 45.2165 10.132C45.2165 8.9 44.8205 7.94667 44.0285 7.272C43.2365 6.59733 42.1072 6.26 40.6405 6.26H35.0085V13.96ZM41.2125 26.984C42.7085 26.984 43.8672 26.632 44.6885 25.928C45.5392 25.224 45.9645 24.2267 45.9645 22.936C45.9645 21.616 45.5245 20.5893 44.6445 19.856C43.7645 19.0933 42.5765 18.712 41.0805 18.712H35.0085V26.984H41.2125ZM74.4579 32L63.2819 18.316V32H57.1219V1.288H63.2819V15.06L74.4579 1.288H81.8939L69.2219 16.512L82.2459 32H74.4579ZM103.722 16.248C105.452 16.5707 106.875 17.436 107.99 18.844C109.104 20.252 109.662 21.8653 109.662 23.684C109.662 25.3267 109.251 26.7787 108.43 28.04C107.638 29.272 106.479 30.24 104.954 30.944C103.428 31.648 101.624 32 99.5417 32H86.2977V1.288H98.9697C101.052 1.288 102.842 1.62533 104.338 2.3C105.863 2.97467 107.007 3.91333 107.77 5.116C108.562 6.31867 108.958 7.68267 108.958 9.208C108.958 10.9973 108.474 12.4933 107.506 13.696C106.567 14.8987 105.306 15.7493 103.722 16.248ZM92.4577 13.96H98.0897C99.5564 13.96 100.686 13.6373 101.478 12.992C102.27 12.3173 102.666 11.364 102.666 10.132C102.666 8.9 102.27 7.94667 101.478 7.272C100.686 6.59733 99.5564 6.26 98.0897 6.26H92.4577V13.96ZM98.6617 26.984C100.158 26.984 101.316 26.632 102.138 25.928C102.988 25.224 103.414 24.2267 103.414 22.936C103.414 21.616 102.974 20.5893 102.094 19.856C101.214 19.0933 100.026 18.712 98.5297 18.712H92.4577V26.984H98.6617ZM117.299 32.308C116.184 32.308 115.26 31.9707 114.527 31.296C113.823 30.592 113.471 29.7267 113.471 28.7C113.471 27.6733 113.823 26.8227 114.527 26.148C115.26 25.444 116.184 25.092 117.299 25.092C118.384 25.092 119.279 25.444 119.983 26.148C120.687 26.8227 121.039 27.6733 121.039 28.7C121.039 29.7267 120.687 30.592 119.983 31.296C119.279 31.9707 118.384 32.308 117.299 32.308Z" fill="#E7C92F"/>
<path d="M6.832 31.208L6.63408 31.6672L6.63693 31.6684L6.832 31.208ZM2.784 28.04L2.37889 28.3331L2.784 28.04ZM1.244 23.156V22.656H0.736127L0.744061 23.1638L1.244 23.156ZM7.844 23.156L8.34279 23.1212L8.31033 22.656H7.844V23.156ZM9.164 26.148L8.82424 26.5149L8.83099 26.521L9.164 26.148ZM15.896 26.236L16.2134 26.6224L16.2214 26.6156L15.896 26.236ZM16.292 21.264L15.9295 21.6084L16.292 21.264ZM14.18 19.9L13.983 20.3596L13.9928 20.3637L14.0027 20.3675L14.18 19.9ZM10.748 18.756L10.6069 19.2357L10.6132 19.2375L10.748 18.756ZM5.864 17.04L5.64903 17.4914L5.65543 17.4945L5.66192 17.4973L5.864 17.04ZM2.652 14.444L2.25184 14.7441L2.26059 14.7551L2.652 14.444ZM2.696 5.028L3.11063 5.30742L2.696 5.028ZM6.524 1.948L6.72098 2.40762L6.72783 2.40457L6.524 1.948ZM19.856 3.18L19.5458 3.57219L19.5523 3.57718L19.856 3.18ZM23.156 9.604V10.104H23.6946L23.6546 9.56687L23.156 9.604ZM16.38 9.604L15.8808 9.63173L15.907 10.104H16.38V9.604ZM15.016 7.008L14.6906 7.38763L14.6978 7.39383L14.7053 7.39975L15.016 7.008ZM8.812 6.876L8.49034 6.49307L8.48275 6.49971L8.812 6.876ZM8.548 11.628L8.18502 11.9719L8.19432 11.9817L8.20413 11.991L8.548 11.628ZM10.572 12.948L10.3689 13.4049L10.379 13.4094L10.3892 13.4134L10.572 12.948ZM14.004 14.092L13.8603 14.5709L13.8629 14.5717L14.004 14.092ZM18.888 15.852L19.0989 15.3986L18.888 15.852ZM22.144 18.492L21.7488 18.7983L22.144 18.492ZM22.232 27.688L21.804 27.4294L22.232 27.688ZM18.492 31.076L18.7156 31.5233L18.7219 31.52L18.492 31.076ZM12.64 31.808C10.5564 31.808 8.68802 31.4514 7.02707 30.7476L6.63693 31.6684C8.43731 32.4313 10.4409 32.808 12.64 32.808V31.808ZM7.02991 30.7488C5.40377 30.0479 4.12897 29.0462 3.18911 27.7469L2.37889 28.3331C3.4337 29.7912 4.85757 30.9014 6.63409 31.6672L7.02991 30.7488ZM3.18911 27.7469C2.25809 26.4599 1.77184 24.9341 1.74394 23.1482L0.744061 23.1638C0.774824 25.1326 1.31524 26.8627 2.37889 28.3331L3.18911 27.7469ZM1.244 23.656H7.844V22.656H1.244V23.656ZM7.34521 23.1908C7.44044 24.5558 7.92316 25.6805 8.8243 26.5149L9.5037 25.7811C8.82084 25.1488 8.42356 24.2789 8.34279 23.1212L7.34521 23.1908ZM8.83099 26.521C9.76725 27.3569 11.0125 27.748 12.508 27.748V26.748C11.1875 26.748 10.2034 26.4058 9.49701 25.775L8.83099 26.521ZM12.508 27.748C14.0203 27.748 15.2755 27.3928 16.2134 26.6224L15.5786 25.8496C14.8738 26.4286 13.8703 26.748 12.508 26.748V27.748ZM16.2214 26.6156C17.1574 25.8134 17.628 24.7635 17.628 23.508H16.628C16.628 24.4818 16.2773 25.2506 15.5706 25.8564L16.2214 26.6156ZM17.628 23.508C17.628 22.4877 17.3113 21.611 16.6545 20.9196L15.9295 21.6084C16.3874 22.0904 16.628 22.7097 16.628 23.508H17.628ZM16.6545 20.9196C16.0394 20.2721 15.2694 19.7785 14.3573 19.4325L14.0027 20.3675C14.7919 20.6669 15.43 21.0826 15.9295 21.6084L16.6545 20.9196ZM14.377 19.4404C13.5262 19.0758 12.3581 18.6876 10.8828 18.2745L10.6132 19.2375C12.0712 19.6457 13.1911 20.0202 13.983 20.3596L14.377 19.4404ZM10.8891 18.2763C8.90591 17.693 7.30035 17.128 6.06608 16.5827L5.66192 17.4973C6.95032 18.0666 8.60076 18.6456 10.6069 19.2357L10.8891 18.2763ZM6.07897 16.5886C4.92051 16.0369 3.90881 15.2216 3.04341 14.1329L2.26059 14.7551C3.21386 15.9544 4.34349 16.8697 5.64903 17.4914L6.07897 16.5886ZM3.052 14.144C2.25494 13.0813 1.832 11.6423 1.832 9.78H0.832C0.832 11.7897 1.28906 13.4601 2.252 14.744L3.052 14.144ZM1.832 9.78C1.832 8.04873 2.26337 6.56465 3.11063 5.30742L2.28137 4.74857C1.30996 6.19001 0.832 7.87393 0.832 9.78H1.832ZM3.11063 5.30742C3.961 4.04559 5.15764 3.07757 6.72096 2.40757L6.32704 1.48843C4.60503 2.22643 3.24967 3.31174 2.28137 4.74857L3.11063 5.30742ZM6.72783 2.40457C8.29616 1.70442 10.1021 1.348 12.156 1.348V0.348C9.98585 0.348 8.03717 0.724915 6.32018 1.49143L6.72783 2.40457ZM12.156 1.348C15.2417 1.348 17.6899 2.10405 19.5458 3.57214L20.1662 2.78786C18.0914 1.14662 15.4063 0.348 12.156 0.348V1.348ZM19.5523 3.57718C21.4213 5.00646 22.4614 7.01002 22.6574 9.64113L23.6546 9.56687C23.4399 6.68332 22.28 4.40421 20.1597 2.78282L19.5523 3.57718ZM23.156 9.104H16.38V10.104H23.156V9.104ZM16.8792 9.57627C16.8124 8.37329 16.286 7.37704 15.3267 6.61625L14.7053 7.39975C15.4474 7.98829 15.8303 8.72271 15.8808 9.63173L16.8792 9.57627ZM15.3414 6.62837C14.4068 5.82731 13.1804 5.452 11.716 5.452V6.452C13.0089 6.452 13.9825 6.78069 14.6906 7.38763L15.3414 6.62837ZM11.716 5.452C10.4266 5.452 9.33497 5.78372 8.4904 6.49314L9.1336 7.25885C9.7557 6.73628 10.6 6.452 11.716 6.452V5.452ZM8.48275 6.49971C7.64366 7.23391 7.256 8.28202 7.256 9.56H8.256C8.256 8.49131 8.57234 7.75009 9.14125 7.25229L8.48275 6.49971ZM7.256 9.56C7.256 10.4995 7.56252 11.3148 8.18502 11.9719L8.91098 11.2841C8.47748 10.8266 8.256 10.2632 8.256 9.56H7.256ZM8.20413 11.991C8.80767 12.5627 9.53162 13.0328 10.3689 13.4049L10.7751 12.4911C10.0284 12.1592 9.403 11.7492 8.89187 11.265L8.20413 11.991ZM10.3892 13.4134C11.2294 13.7434 12.3885 14.1294 13.8603 14.5709L14.1477 13.6131C12.6862 13.1746 11.5573 12.7979 10.7548 12.4826L10.3892 13.4134ZM13.8629 14.5717C15.8442 15.1544 17.4465 15.733 18.6771 16.3054L19.0989 15.3986C17.8069 14.7977 16.1532 14.2029 14.1451 13.6123L13.8629 14.5717ZM18.6771 16.3054C19.8614 16.8562 20.8849 17.6836 21.7488 18.7983L22.5392 18.1857C21.5844 16.9537 20.4373 16.0212 19.0989 15.3986L18.6771 16.3054ZM21.7488 18.7983C22.573 19.8617 23.008 21.2844 23.008 23.112H24.008C24.008 21.1263 23.5337 19.4689 22.5392 18.1857L21.7488 18.7983ZM23.008 23.112C23.008 24.6634 22.6077 26.0993 21.804 27.4294L22.66 27.9466C23.5577 26.4607 24.008 24.8459 24.008 23.112H23.008ZM21.804 27.4294C21.0068 28.7491 19.8334 29.8183 18.2621 30.632L18.7219 31.52C20.436 30.6324 21.7559 29.4429 22.66 27.9466L21.804 27.4294ZM18.2684 30.6288C16.7093 31.4083 14.8386 31.808 12.64 31.808V32.808C14.9588 32.808 16.9894 32.3863 18.7156 31.5232L18.2684 30.6288ZM46.2725 16.248L46.1224 15.7711L46.1809 16.7395L46.2725 16.248ZM50.5405 18.844L50.9325 18.5336L50.5405 18.844ZM50.9805 28.04L50.5615 27.7672L50.5599 27.7696L50.9805 28.04ZM47.5045 30.944L47.714 31.398L47.5045 30.944ZM28.8485 32H28.3485V32.5H28.8485V32ZM28.8485 1.288V0.788H28.3485V1.288H28.8485ZM46.8885 2.3L46.6829 2.7558L46.6862 2.75727L46.8885 2.3ZM50.3205 5.116L49.8982 5.38381L49.9029 5.391L50.3205 5.116ZM50.0565 13.696L49.667 13.3825L49.6623 13.3884L50.0565 13.696ZM35.0085 13.96H34.5085V14.46H35.0085V13.96ZM44.0285 12.992L44.3444 13.3797L44.3527 13.3726L44.0285 12.992ZM44.0285 7.272L44.3527 6.89138L44.0285 7.272ZM35.0085 6.26V5.76H34.5085V6.26H35.0085ZM44.6885 25.928L44.3697 25.5427L44.3631 25.5484L44.6885 25.928ZM44.6445 19.856L44.317 20.2339L44.3244 20.2401L44.6445 19.856ZM35.0085 18.712V18.212H34.5085V18.712H35.0085ZM35.0085 26.984H34.5085V27.484H35.0085V26.984ZM46.1809 16.7395C47.7902 17.0396 49.1071 17.839 50.1485 19.1544L50.9325 18.5336C49.7445 17.033 48.2161 16.1018 46.3641 15.7565L46.1809 16.7395ZM50.1485 19.1544C51.1923 20.4728 51.7125 21.9764 51.7125 23.684H52.7125C52.7125 21.7542 52.1181 20.0312 50.9325 18.5336L50.1485 19.1544ZM51.7125 23.684C51.7125 25.239 51.3252 26.5944 50.5615 27.7672L51.3995 28.3128C52.2785 26.9629 52.7125 25.4143 52.7125 23.684H51.7125ZM50.5599 27.7696C49.8266 28.9103 48.7469 29.8199 47.295 30.49L47.714 31.398C49.3127 30.6601 50.5504 29.6337 51.4011 28.3104L50.5599 27.7696ZM47.295 30.49C45.8491 31.1573 44.1197 31.5 42.0925 31.5V32.5C44.2306 32.5 46.1092 32.1387 47.714 31.398L47.295 30.49ZM42.0925 31.5H28.8485V32.5H42.0925V31.5ZM29.3485 32V1.288H28.3485V32H29.3485ZM28.8485 1.788H41.5205V0.788H28.8485V1.788ZM41.5205 1.788C43.5507 1.788 45.2665 2.11699 46.6829 2.75579L47.0941 1.84421C45.5185 1.13368 43.6556 0.788 41.5205 0.788V1.788ZM46.6862 2.75727C48.137 3.39893 49.1971 4.27816 49.8982 5.38377L50.7428 4.84823C49.9185 3.54851 48.6907 2.55041 47.0908 1.84273L46.6862 2.75727ZM49.9029 5.391C50.6379 6.50708 51.0085 7.77433 51.0085 9.208H52.0085C52.0085 7.591 51.5871 6.13025 50.7381 4.841L49.9029 5.391ZM51.0085 9.208C51.0085 10.9023 50.5524 12.2824 49.667 13.3825L50.446 14.0095C51.4966 12.7042 52.0085 11.0924 52.0085 9.208H51.0085ZM49.6623 13.3884C48.7915 14.5041 47.6187 15.3 46.1224 15.7711L46.4226 16.7249C48.0943 16.1987 49.4441 15.2932 50.4507 14.0036L49.6623 13.3884ZM35.0085 14.46H40.6405V13.46H35.0085V14.46ZM40.6405 14.46C42.1733 14.46 43.4314 14.1235 44.3443 13.3796L43.7127 12.6044C43.0416 13.1512 42.041 13.46 40.6405 13.46V14.46ZM44.3527 13.3726C45.2771 12.5852 45.7165 11.4807 45.7165 10.132H44.7165C44.7165 11.2473 44.3639 12.0495 43.7043 12.6114L44.3527 13.3726ZM45.7165 10.132C45.7165 8.78328 45.2771 7.67879 44.3527 6.89138L43.7043 7.65262C44.3639 8.21454 44.7165 9.01672 44.7165 10.132H45.7165ZM44.3527 6.89138C43.4394 6.11332 42.1778 5.76 40.6405 5.76V6.76C42.0365 6.76 43.0336 7.08135 43.7043 7.65262L44.3527 6.89138ZM40.6405 5.76H35.0085V6.76H40.6405V5.76ZM34.5085 6.26V13.96H35.5085V6.26H34.5085ZM41.2125 27.484C42.7823 27.484 44.0725 27.1146 45.0139 26.3076L44.3631 25.5484C43.6618 26.1494 42.6347 26.484 41.2125 26.484V27.484ZM45.0073 26.3132C45.9927 25.4977 46.4645 24.3476 46.4645 22.936H45.4645C45.4645 24.1057 45.0856 24.9503 44.3697 25.5428L45.0073 26.3132ZM46.4645 22.936C46.4645 21.4929 45.9767 20.3153 44.9646 19.4719L44.3244 20.2401C45.0723 20.8634 45.4645 21.7391 45.4645 22.936H46.4645ZM44.972 19.4782C43.9776 18.6164 42.6617 18.212 41.0805 18.212V19.212C42.4913 19.212 43.5514 19.5703 44.317 20.2338L44.972 19.4782ZM41.0805 18.212H35.0085V19.212H41.0805V18.212ZM34.5085 18.712V26.984H35.5085V18.712H34.5085ZM35.0085 27.484H41.2125V26.484H35.0085V27.484ZM74.4579 32L74.0707 32.3163L74.2207 32.5H74.4579V32ZM63.2819 18.316L63.6692 17.9997L62.7819 16.9134V18.316H63.2819ZM63.2819 32V32.5H63.7819V32H63.2819ZM57.1219 32H56.6219V32.5H57.1219V32ZM57.1219 1.288V0.788H56.6219V1.288H57.1219ZM63.2819 1.288H63.7819V0.788H63.2819V1.288ZM63.2819 15.06H62.7819V16.4696L63.6702 15.3751L63.2819 15.06ZM74.4579 1.288V0.788H74.2198L74.0697 0.972937L74.4579 1.288ZM81.8939 1.288L82.2782 1.60787L82.9607 0.788H81.8939V1.288ZM69.2219 16.512L68.8376 16.1921L68.57 16.5136L68.8393 16.8338L69.2219 16.512ZM82.2459 32V32.5H83.3197L82.6286 31.6782L82.2459 32ZM74.8452 31.6837L63.6692 17.9997L62.8947 18.6323L74.0707 32.3163L74.8452 31.6837ZM62.7819 18.316V32H63.7819V18.316H62.7819ZM63.2819 31.5H57.1219V32.5H63.2819V31.5ZM57.6219 32V1.288H56.6219V32H57.6219ZM57.1219 1.788H63.2819V0.788H57.1219V1.788ZM62.7819 1.288V15.06H63.7819V1.288H62.7819ZM63.6702 15.3751L74.8462 1.60306L74.0697 0.972937L62.8937 14.7449L63.6702 15.3751ZM74.4579 1.788H81.8939V0.788H74.4579V1.788ZM81.5096 0.968126L68.8376 16.1921L69.6062 16.8319L82.2782 1.60787L81.5096 0.968126ZM68.8393 16.8338L81.8633 32.3218L82.6286 31.6782L69.6046 16.1902L68.8393 16.8338ZM82.2459 31.5H74.4579V32.5H82.2459V31.5ZM103.722 16.248L103.572 15.7711L103.63 16.7395L103.722 16.248ZM107.99 18.844L108.382 18.5336L107.99 18.844ZM108.43 28.04L108.011 27.7672L108.009 27.7696L108.43 28.04ZM104.954 30.944L105.163 31.398L104.954 30.944ZM86.2977 32H85.7977V32.5H86.2977V32ZM86.2977 1.288V0.788H85.7977V1.288H86.2977ZM104.338 2.3L104.132 2.7558L104.135 2.75727L104.338 2.3ZM107.77 5.116L107.347 5.38381L107.352 5.391L107.77 5.116ZM107.506 13.696L107.116 13.3825L107.112 13.3884L107.506 13.696ZM92.4577 13.96H91.9577V14.46H92.4577V13.96ZM101.478 12.992L101.794 13.3797L101.802 13.3726L101.478 12.992ZM101.478 7.272L101.802 6.89138L101.478 7.272ZM92.4577 6.26V5.76H91.9577V6.26H92.4577ZM102.138 25.928L101.819 25.5427L101.812 25.5484L102.138 25.928ZM102.094 19.856L101.766 20.2339L101.774 20.2401L102.094 19.856ZM92.4577 18.712V18.212H91.9577V18.712H92.4577ZM92.4577 26.984H91.9577V27.484H92.4577V26.984ZM103.63 16.7395C105.239 17.0396 106.556 17.839 107.598 19.1544L108.382 18.5336C107.194 17.033 105.665 16.1018 103.813 15.7565L103.63 16.7395ZM107.598 19.1544C108.641 20.4728 109.162 21.9764 109.162 23.684H110.162C110.162 21.7542 109.567 20.0312 108.382 18.5336L107.598 19.1544ZM109.162 23.684C109.162 25.239 108.774 26.5944 108.011 27.7672L108.849 28.3128C109.728 26.9629 110.162 25.4143 110.162 23.684H109.162ZM108.009 27.7696C107.276 28.9103 106.196 29.8199 104.744 30.49L105.163 31.398C106.762 30.6601 108 29.6337 108.85 28.3104L108.009 27.7696ZM104.744 30.49C103.298 31.1573 101.569 31.5 99.5417 31.5V32.5C101.68 32.5 103.558 32.1387 105.163 31.398L104.744 30.49ZM99.5417 31.5H86.2977V32.5H99.5417V31.5ZM86.7977 32V1.288H85.7977V32H86.7977ZM86.2977 1.788H98.9697V0.788H86.2977V1.788ZM98.9697 1.788C101 1.788 102.716 2.11699 104.132 2.75579L104.543 1.84421C102.968 1.13368 101.105 0.788 98.9697 0.788V1.788ZM104.135 2.75727C105.586 3.39893 106.646 4.27816 107.347 5.38377L108.192 4.84823C107.368 3.54851 106.14 2.55041 104.54 1.84273L104.135 2.75727ZM107.352 5.391C108.087 6.50708 108.458 7.77433 108.458 9.208H109.458C109.458 7.591 109.036 6.13025 108.187 4.841L107.352 5.391ZM108.458 9.208C108.458 10.9023 108.002 12.2824 107.116 13.3825L107.895 14.0095C108.946 12.7042 109.458 11.0924 109.458 9.208H108.458ZM107.112 13.3884C106.241 14.5041 105.068 15.3 103.572 15.7711L103.872 16.7249C105.544 16.1987 106.893 15.2932 107.9 14.0036L107.112 13.3884ZM92.4577 14.46H98.0897V13.46H92.4577V14.46ZM98.0897 14.46C99.6225 14.46 100.881 14.1235 101.794 13.3796L101.162 12.6044C100.491 13.1512 99.4903 13.46 98.0897 13.46V14.46ZM101.802 13.3726C102.726 12.5852 103.166 11.4807 103.166 10.132H102.166C102.166 11.2473 101.813 12.0495 101.153 12.6114L101.802 13.3726ZM103.166 10.132C103.166 8.78328 102.726 7.67879 101.802 6.89138L101.153 7.65262C101.813 8.21454 102.166 9.01672 102.166 10.132H103.166ZM101.802 6.89138C100.889 6.11332 99.6271 5.76 98.0897 5.76V6.76C99.4857 6.76 100.483 7.08135 101.153 7.65262L101.802 6.89138ZM98.0897 5.76H92.4577V6.76H98.0897V5.76ZM91.9577 6.26V13.96H92.9577V6.26H91.9577ZM98.6617 27.484C100.232 27.484 101.522 27.1146 102.463 26.3076L101.812 25.5484C101.111 26.1494 100.084 26.484 98.6617 26.484V27.484ZM102.457 26.3132C103.442 25.4977 103.914 24.3476 103.914 22.936H102.914C102.914 24.1057 102.535 24.9503 101.819 25.5428L102.457 26.3132ZM103.914 22.936C103.914 21.4929 103.426 20.3153 102.414 19.4719L101.774 20.2401C102.522 20.8634 102.914 21.7391 102.914 22.936H103.914ZM102.421 19.4782C101.427 18.6164 100.111 18.212 98.5297 18.212V19.212C99.9405 19.212 101.001 19.5703 101.766 20.2338L102.421 19.4782ZM98.5297 18.212H92.4577V19.212H98.5297V18.212ZM91.9577 18.712V26.984H92.9577V18.712H91.9577ZM92.4577 27.484H98.6617V26.484H92.4577V27.484ZM114.527 31.296L114.174 31.6496L114.181 31.6569L114.189 31.664L114.527 31.296ZM114.527 26.148L114.873 26.509L114.873 26.5087L114.527 26.148ZM119.983 26.148L119.63 26.5016L119.637 26.509L119.983 26.148ZM119.983 31.296L120.329 31.6571L120.337 31.6496L119.983 31.296ZM117.299 31.808C116.294 31.808 115.496 31.5075 114.866 30.928L114.189 31.664C115.025 32.4338 116.075 32.808 117.299 32.808V31.808ZM114.881 30.9424C114.274 30.3354 113.971 29.5987 113.971 28.7H112.971C112.971 29.8546 113.373 30.8486 114.174 31.6496L114.881 30.9424ZM113.971 28.7C113.971 27.8016 114.273 27.0839 114.873 26.509L114.181 25.787C113.373 26.5614 112.971 27.5451 112.971 28.7H113.971ZM114.873 26.5087C115.504 25.9031 116.3 25.592 117.299 25.592V24.592C116.069 24.592 115.017 24.9849 114.181 25.7873L114.873 26.5087ZM117.299 25.592C118.265 25.592 119.028 25.9002 119.63 26.5016L120.337 25.7944C119.53 24.9878 118.504 24.592 117.299 24.592V25.592ZM119.637 26.509C120.237 27.0839 120.539 27.8016 120.539 28.7H121.539C121.539 27.5451 121.137 26.5614 120.329 25.787L119.637 26.509ZM120.539 28.7C120.539 29.5987 120.237 30.3354 119.63 30.9424L120.337 31.6496C121.138 30.8486 121.539 29.8546 121.539 28.7H120.539ZM119.637 30.935C119.037 31.5101 118.271 31.808 117.299 31.808V32.808C118.498 32.808 119.521 32.4313 120.329 31.657L119.637 30.935Z" fill="black"/>
</svg>
