<svg width="61" height="61" viewBox="0 0 61 61" fill="none" xmlns="http://www.w3.org/2000/svg">
<circle cx="40" cy="40" r="21" fill="#E7C92F" fill-opacity="0.6"/>
<path d="M28 46.6666H49" stroke="black" stroke-width="4" stroke-linecap="round" stroke-linejoin="round"/>
<path d="M38.5 8.16667C39.4283 7.23841 40.6872 6.71692 42 6.71692C42.65 6.71692 43.2937 6.84495 43.8942 7.0937C44.4947 7.34244 45.0404 7.70704 45.5 8.16667C45.9596 8.62629 46.3242 9.17195 46.573 9.77248C46.8217 10.373 46.9497 11.0167 46.9497 11.6667C46.9497 12.3167 46.8217 12.9603 46.573 13.5609C46.3242 14.1614 45.9596 14.707 45.5 15.1667L16.3333 44.3333L7 46.6667L9.33333 37.3333L38.5 8.16667Z" stroke="black" stroke-width="4" stroke-linecap="round" stroke-linejoin="round"/>
</svg>
